<svg width="20" height="20" viewBox="0 0 20 20" fill="none" xmlns="http://www.w3.org/2000/svg">
<path fill-rule="evenodd" clip-rule="evenodd" d="M7.77485 5.27491C7.59929 5.45069 7.50067 5.68897 7.50067 5.93741C7.50067 6.18585 7.59929 6.42413 7.77485 6.59991L11.1748 9.99991L7.77485 13.3999C7.68274 13.4857 7.60886 13.5892 7.55762 13.7042C7.50638 13.8192 7.47883 13.9434 7.47661 14.0693C7.47439 14.1951 7.49754 14.3202 7.54469 14.4369C7.59185 14.5536 7.66203 14.6597 7.75105 14.7487C7.84007 14.8377 7.94612 14.9079 8.06285 14.9551C8.17959 15.0022 8.30462 15.0254 8.4305 15.0231C8.55638 15.0209 8.68052 14.9934 8.79552 14.9421C8.91052 14.8909 9.01402 14.817 9.09985 14.7249L13.1623 10.6624C13.3379 10.4866 13.4365 10.2483 13.4365 9.99991C13.4365 9.75147 13.3379 9.51319 13.1623 9.33741L9.09985 5.27491C8.92407 5.09934 8.68579 5.00073 8.43735 5.00073C8.18891 5.00073 7.95063 5.09934 7.77485 5.27491Z" fill="#57B9BA"/>
</svg>
