<svg width="11" height="7" viewBox="0 0 11 7" fill="none" xmlns="http://www.w3.org/2000/svg">
<path fill-rule="evenodd" clip-rule="evenodd" d="M10.7248 1.27509C10.5491 1.09953 10.3108 1.00092 10.0623 1.00092C9.81391 1.00092 9.57563 1.09953 9.39985 1.27509L5.99985 4.67509L2.59985 1.27509C2.51402 1.18298 2.41052 1.10911 2.29552 1.05787C2.18052 1.00663 2.05638 0.979074 1.9305 0.976852C1.80462 0.974632 1.67959 0.997788 1.56285 1.04494C1.44612 1.09209 1.34007 1.16227 1.25105 1.2513C1.16203 1.34032 1.09185 1.44636 1.04469 1.5631C0.997543 1.67983 0.974387 1.80487 0.976608 1.93075C0.978829 2.05662 1.00638 2.18077 1.05762 2.29576C1.10886 2.41076 1.18274 2.51426 1.27485 2.60009L5.33735 6.66259C5.51313 6.83816 5.75141 6.93677 5.99985 6.93677C6.24829 6.93677 6.48657 6.83816 6.66235 6.66259L10.7248 2.60009C10.9004 2.42431 10.999 2.18603 10.999 1.93759C10.999 1.68915 10.9004 1.45087 10.7248 1.27509Z" fill="white"/>
</svg>
