<svg width="20" height="20" viewBox="0 0 20 20" fill="none" xmlns="http://www.w3.org/2000/svg">
<g clip-path="url(#clip0_60_6443)">
<path d="M10.0001 9.16667C10.2211 9.16667 10.4331 9.25447 10.5894 9.41075C10.7457 9.56703 10.8335 9.77899 10.8335 10V15.4867L11.911 14.41C12.0674 14.2537 12.2796 14.1661 12.5007 14.1662C12.7219 14.1664 12.9339 14.2544 13.0901 14.4108C13.2464 14.5673 13.3341 14.7795 13.3339 15.0006C13.3338 15.2217 13.2458 15.4337 13.0893 15.59L10.736 17.9392C10.5251 18.1492 10.3193 18.3333 10.0001 18.3333C9.72013 18.3333 9.52846 18.1925 9.34346 18.0167L6.91096 15.59C6.75449 15.4337 6.66649 15.2217 6.66633 15.0006C6.66618 14.7795 6.75387 14.5673 6.91013 14.4108C7.06639 14.2544 7.2784 14.1664 7.49954 14.1662C7.72068 14.1661 7.93282 14.2537 8.0893 14.41L9.1668 15.4867V10C9.1668 9.77899 9.25459 9.56703 9.41087 9.41075C9.56715 9.25447 9.77911 9.16667 10.0001 9.16667ZM9.58346 1.66667C11.9035 1.66667 13.8835 3.12501 14.6551 5.17667C15.6831 5.45932 16.5939 6.063 17.2547 6.89967C17.9155 7.73634 18.2917 8.76224 18.3284 9.82774C18.3652 10.8932 18.0606 11.9426 17.459 12.8228C16.8574 13.703 15.9904 14.368 14.9843 14.7208C14.9221 14.1581 14.6699 13.6334 14.2693 13.2333C13.8434 12.8055 13.2766 12.547 12.6743 12.5058L12.5001 12.5V10C12.5008 9.34925 12.2476 8.7239 11.7945 8.25682C11.3414 7.78975 10.724 7.51777 10.0735 7.49867C9.42302 7.47958 8.79073 7.71487 8.31099 8.15456C7.83124 8.59424 7.54185 9.20367 7.5043 9.85334L7.50013 10V12.5C7.17144 12.4995 6.84591 12.564 6.54228 12.6899C6.23864 12.8158 5.96291 13.0005 5.73096 13.2333C5.28268 13.6813 5.02193 14.2832 5.0018 14.9167C4.13423 14.7394 3.34567 14.2904 2.7504 13.6349C2.15512 12.9794 1.78408 12.1513 1.69104 11.2707C1.59801 10.3901 1.78782 9.50276 2.23296 8.73729C2.67809 7.97182 3.35543 7.368 4.1668 7.01334C4.18521 5.58891 4.76401 4.22908 5.77784 3.22835C6.79167 2.22762 8.15892 1.66655 9.58346 1.66667Z" fill="#FF70A6"/>
</g>
<defs>
<clipPath id="clip0_60_6443">
<rect width="20" height="20" fill="white"/>
</clipPath>
</defs>
</svg>
