<svg width="19" height="15" viewBox="0 0 19 15" fill="none" xmlns="http://www.w3.org/2000/svg">
<path d="M1.28292 6.43989C1.00202 6.72114 0.844238 7.10239 0.844238 7.49989C0.844238 7.89739 1.00202 8.27864 1.28292 8.55989L6.93892 14.2179C7.07825 14.3572 7.24366 14.4677 7.42571 14.5432C7.60776 14.6186 7.80287 14.6574 7.99992 14.6574C8.19696 14.6574 8.39208 14.6186 8.57413 14.5432C8.75617 14.4677 8.92159 14.3572 9.06092 14.2179C9.20025 14.0786 9.31077 13.9131 9.38618 13.7311C9.46159 13.5491 9.5004 13.3539 9.5004 13.1569C9.5004 12.9598 9.46159 12.7647 9.38618 12.5827C9.31077 12.4006 9.20025 12.2352 9.06092 12.0959L5.96492 8.99989H17.4999C17.8977 8.99989 18.2793 8.84185 18.5606 8.56055C18.8419 8.27925 18.9999 7.89771 18.9999 7.49989C18.9999 7.10206 18.8419 6.72053 18.5606 6.43923C18.2793 6.15792 17.8977 5.99989 17.4999 5.99989H5.96492L9.06092 2.90389C9.34218 2.62249 9.50014 2.24089 9.50005 1.84304C9.49995 1.44518 9.34181 1.06365 9.06042 0.782389C8.77902 0.501127 8.39742 0.343168 7.99956 0.343262C7.60171 0.343356 7.22018 0.501494 6.93892 0.782889L1.28292 6.43989Z" fill="white"/>
</svg>
