<svg width="19" height="18" viewBox="0 0 19 18" fill="none" xmlns="http://www.w3.org/2000/svg">
<path d="M16.625 0C17.1554 0 17.6641 0.210714 18.0392 0.585786C18.4143 0.960859 18.625 1.46957 18.625 2V16C18.625 16.5304 18.4143 17.0391 18.0392 17.4142C17.6641 17.7893 17.1554 18 16.625 18H2.625C2.09457 18 1.58586 17.7893 1.21079 17.4142C0.835714 17.0391 0.625 16.5304 0.625 16V2C0.625 1.46957 0.835714 0.960859 1.21079 0.585786C1.58586 0.210714 2.09457 0 2.625 0H16.625ZM16.625 6H2.625V16H16.625V6ZM6.125 12C6.39022 12 6.64457 12.1054 6.83211 12.2929C7.01964 12.4804 7.125 12.7348 7.125 13C7.125 13.2652 7.01964 13.5196 6.83211 13.7071C6.64457 13.8946 6.39022 14 6.125 14H5.125C4.85978 14 4.60543 13.8946 4.41789 13.7071C4.23036 13.5196 4.125 13.2652 4.125 13C4.125 12.7348 4.23036 12.4804 4.41789 12.2929C4.60543 12.1054 4.85978 12 5.125 12H6.125ZM10.125 12C10.3799 12.0003 10.625 12.0979 10.8104 12.2728C10.9957 12.4478 11.1072 12.687 11.1222 12.9414C11.1371 13.1958 11.0543 13.4464 10.8907 13.6418C10.7271 13.8373 10.4951 13.9629 10.242 13.993L10.125 14H9.125C8.87012 13.9997 8.62497 13.9021 8.43963 13.7272C8.2543 13.5522 8.14276 13.313 8.12783 13.0586C8.11289 12.8042 8.19567 12.5536 8.35926 12.3582C8.52285 12.1627 8.7549 12.0371 9.008 12.007L9.125 12H10.125ZM6.125 8C6.37988 8.00028 6.62503 8.09788 6.81037 8.27285C6.9957 8.44782 7.10724 8.68695 7.12217 8.94139C7.13711 9.19584 7.05433 9.44638 6.89074 9.64183C6.72715 9.83729 6.4951 9.9629 6.242 9.993L6.125 10H5.125C4.87012 9.99972 4.62497 9.90212 4.43963 9.72715C4.2543 9.55218 4.14277 9.31305 4.12783 9.05861C4.11289 8.80416 4.19567 8.55362 4.35926 8.35817C4.52286 8.16271 4.7549 8.0371 5.008 8.007L5.125 8H6.125ZM10.125 8C10.3902 8 10.6446 8.10536 10.8321 8.29289C11.0196 8.48043 11.125 8.73478 11.125 9C11.125 9.26522 11.0196 9.51957 10.8321 9.70711C10.6446 9.89464 10.3902 10 10.125 10H9.125C8.85978 10 8.60543 9.89464 8.41789 9.70711C8.23036 9.51957 8.125 9.26522 8.125 9C8.125 8.73478 8.23036 8.48043 8.41789 8.29289C8.60543 8.10536 8.85978 8 9.125 8H10.125ZM14.125 8C14.3799 8.00028 14.625 8.09788 14.8104 8.27285C14.9957 8.44782 15.1072 8.68695 15.1222 8.94139C15.1371 9.19584 15.0543 9.44638 14.8907 9.64183C14.7271 9.83729 14.4951 9.9629 14.242 9.993L14.125 10H13.125C12.8701 9.99972 12.625 9.90212 12.4396 9.72715C12.2543 9.55218 12.1428 9.31305 12.1278 9.05861C12.1129 8.80416 12.1957 8.55362 12.3593 8.35817C12.5229 8.16271 12.7549 8.0371 13.008 8.007L13.125 8H14.125ZM16.625 2H2.625V4H16.625V2Z" fill="#A1A1A1"/>
</svg>
