<svg width="19" height="18" viewBox="0 0 19 18" fill="none" xmlns="http://www.w3.org/2000/svg">
<path d="M18.625 5V16C18.625 16.5304 18.4143 17.0391 18.0392 17.4142C17.6641 17.7893 17.1554 18 16.625 18H2.625C2.09457 18 1.58586 17.7893 1.21079 17.4142C0.835714 17.0391 0.625 16.5304 0.625 16V5H18.625ZM6.125 12H5.125C4.87012 12.0003 4.62497 12.0979 4.43963 12.2728C4.2543 12.4478 4.14277 12.687 4.12783 12.9414C4.11289 13.1958 4.19567 13.4464 4.35926 13.6418C4.52286 13.8373 4.7549 13.9629 5.008 13.993L5.125 14H6.125C6.37988 13.9997 6.62503 13.9021 6.81037 13.7272C6.9957 13.5522 7.10724 13.313 7.12217 13.0586C7.13711 12.8042 7.05433 12.5536 6.89074 12.3582C6.72715 12.1627 6.4951 12.0371 6.242 12.007L6.125 12ZM10.125 12H9.125C8.85978 12 8.60543 12.1054 8.41789 12.2929C8.23036 12.4804 8.125 12.7348 8.125 13C8.125 13.2652 8.23036 13.5196 8.41789 13.7071C8.60543 13.8946 8.85978 14 9.125 14H10.125C10.3902 14 10.6446 13.8946 10.8321 13.7071C11.0196 13.5196 11.125 13.2652 11.125 13C11.125 12.7348 11.0196 12.4804 10.8321 12.2929C10.6446 12.1054 10.3902 12 10.125 12ZM6.125 8H5.125C4.85978 8 4.60543 8.10536 4.41789 8.29289C4.23036 8.48043 4.125 8.73478 4.125 9C4.125 9.26522 4.23036 9.51957 4.41789 9.70711C4.60543 9.89464 4.85978 10 5.125 10H6.125C6.39022 10 6.64457 9.89464 6.83211 9.70711C7.01964 9.51957 7.125 9.26522 7.125 9C7.125 8.73478 7.01964 8.48043 6.83211 8.29289C6.64457 8.10536 6.39022 8 6.125 8ZM10.125 8H9.125C8.87012 8.00028 8.62497 8.09788 8.43963 8.27285C8.2543 8.44782 8.14276 8.68695 8.12783 8.94139C8.11289 9.19584 8.19567 9.44638 8.35926 9.64183C8.52285 9.83729 8.7549 9.9629 9.008 9.993L9.125 10H10.125C10.3799 9.99972 10.625 9.90212 10.8104 9.72715C10.9957 9.55218 11.1072 9.31305 11.1222 9.05861C11.1371 8.80416 11.0543 8.55362 10.8907 8.35817C10.7271 8.16271 10.4951 8.0371 10.242 8.007L10.125 8ZM14.125 8H13.125C12.8598 8 12.6054 8.10536 12.4179 8.29289C12.2304 8.48043 12.125 8.73478 12.125 9C12.125 9.26522 12.2304 9.51957 12.4179 9.70711C12.6054 9.89464 12.8598 10 13.125 10H14.125C14.3902 10 14.6446 9.89464 14.8321 9.70711C15.0196 9.51957 15.125 9.26522 15.125 9C15.125 8.73478 15.0196 8.48043 14.8321 8.29289C14.6446 8.10536 14.3902 8 14.125 8ZM16.625 0C17.1554 0 17.6641 0.210714 18.0392 0.585786C18.4143 0.960859 18.625 1.46957 18.625 2V3H0.625V2C0.625 1.46957 0.835714 0.960859 1.21079 0.585786C1.58586 0.210714 2.09457 0 2.625 0H16.625Z" fill="#FF70A6"/>
</svg>
