<svg width="16" height="12" viewBox="0 0 16 12" fill="none" xmlns="http://www.w3.org/2000/svg">
<path fill-rule="evenodd" clip-rule="evenodd" d="M15.6599 0.554047C15.8161 0.710321 15.9039 0.922244 15.9039 1.14321C15.9039 1.36418 15.8161 1.57611 15.6599 1.73238L6.29158 11.1015C6.20646 11.1867 6.10539 11.2543 5.99414 11.3004C5.8829 11.3465 5.76366 11.3702 5.64325 11.3702C5.52284 11.3702 5.4036 11.3465 5.29236 11.3004C5.18111 11.2543 5.08004 11.1867 4.99492 11.1015L0.339917 6.44655C0.262491 6.36912 0.201074 6.2772 0.159172 6.17604C0.11727 6.07488 0.0957031 5.96646 0.0957031 5.85696C0.0957031 5.74747 0.11727 5.63904 0.159172 5.53788C0.201074 5.43672 0.262491 5.34481 0.339917 5.26738C0.417342 5.18996 0.509259 5.12854 0.61042 5.08664C0.711581 5.04473 0.820004 5.02317 0.9295 5.02317C1.039 5.02317 1.14742 5.04473 1.24858 5.08664C1.34974 5.12854 1.44166 5.18996 1.51908 5.26738L5.64408 9.39238L14.4808 0.554047C14.637 0.397822 14.8489 0.310059 15.0699 0.310059C15.2909 0.310059 15.5036 0.397822 15.6599 0.554047Z" fill="white"/>
</svg>
