<svg width="16" height="16" viewBox="0 0 16 16" fill="none" xmlns="http://www.w3.org/2000/svg">
<path d="M15.5 4.66667V13.8333C15.5 14.2754 15.3244 14.6993 15.0118 15.0118C14.6993 15.3244 14.2754 15.5 13.8333 15.5H2.16667C1.72464 15.5 1.30072 15.3244 0.988155 15.0118C0.675595 14.6993 0.5 14.2754 0.5 13.8333V4.66667H15.5ZM5.08333 10.5H4.25C4.0376 10.5002 3.83331 10.5816 3.67886 10.7274C3.52441 10.8732 3.43147 11.0725 3.41902 11.2845C3.40658 11.4965 3.47556 11.7053 3.61189 11.8682C3.74821 12.0311 3.94159 12.1357 4.1525 12.1608L4.25 12.1667H5.08333C5.29573 12.1664 5.50003 12.0851 5.65447 11.9393C5.80892 11.7935 5.90186 11.5942 5.91431 11.3822C5.92676 11.1701 5.85777 10.9614 5.72145 10.7985C5.58512 10.6356 5.39175 10.5309 5.18083 10.5058L5.08333 10.5ZM8.41667 10.5H7.58333C7.36232 10.5 7.15036 10.5878 6.99408 10.7441C6.8378 10.9004 6.75 11.1123 6.75 11.3333C6.75 11.5543 6.8378 11.7663 6.99408 11.9226C7.15036 12.0789 7.36232 12.1667 7.58333 12.1667H8.41667C8.63768 12.1667 8.84964 12.0789 9.00592 11.9226C9.1622 11.7663 9.25 11.5543 9.25 11.3333C9.25 11.1123 9.1622 10.9004 9.00592 10.7441C8.84964 10.5878 8.63768 10.5 8.41667 10.5ZM5.08333 7.16667H4.25C4.02899 7.16667 3.81702 7.25446 3.66074 7.41074C3.50446 7.56702 3.41667 7.77899 3.41667 8C3.41667 8.22101 3.50446 8.43297 3.66074 8.58926C3.81702 8.74554 4.02899 8.83333 4.25 8.83333H5.08333C5.30435 8.83333 5.51631 8.74554 5.67259 8.58926C5.82887 8.43297 5.91667 8.22101 5.91667 8C5.91667 7.77899 5.82887 7.56702 5.67259 7.41074C5.51631 7.25446 5.30435 7.16667 5.08333 7.16667ZM8.41667 7.16667H7.58333C7.37093 7.1669 7.16664 7.24823 7.01219 7.39404C6.85775 7.53985 6.7648 7.73913 6.75236 7.95116C6.73991 8.1632 6.8089 8.37198 6.94522 8.53486C7.08155 8.69774 7.27492 8.80241 7.48583 8.8275L7.58333 8.83333H8.41667C8.62907 8.8331 8.83336 8.75177 8.98781 8.60596C9.14225 8.46015 9.2352 8.26087 9.24764 8.04884C9.26009 7.8368 9.1911 7.62802 9.05478 7.46514C8.91845 7.30226 8.72508 7.19759 8.51417 7.1725L8.41667 7.16667ZM11.75 7.16667H10.9167C10.6957 7.16667 10.4837 7.25446 10.3274 7.41074C10.1711 7.56702 10.0833 7.77899 10.0833 8C10.0833 8.22101 10.1711 8.43297 10.3274 8.58926C10.4837 8.74554 10.6957 8.83333 10.9167 8.83333H11.75C11.971 8.83333 12.183 8.74554 12.3393 8.58926C12.4955 8.43297 12.5833 8.22101 12.5833 8C12.5833 7.77899 12.4955 7.56702 12.3393 7.41074C12.183 7.25446 11.971 7.16667 11.75 7.16667ZM13.8333 0.5C14.2754 0.5 14.6993 0.675595 15.0118 0.988155C15.3244 1.30072 15.5 1.72464 15.5 2.16667V3H0.5V2.16667C0.5 1.72464 0.675595 1.30072 0.988155 0.988155C1.30072 0.675595 1.72464 0.5 2.16667 0.5H13.8333Z" fill="#57B9BA"/>
</svg>
