<svg width="20" height="20" viewBox="0 0 20 20" fill="none" xmlns="http://www.w3.org/2000/svg">
<g clip-path="url(#clip0_378_3359)">
<path fill-rule="evenodd" clip-rule="evenodd" d="M11.9 1.66675C12.2498 1.66684 12.5907 1.77699 12.8744 1.98159C13.1581 2.18619 13.3703 2.47487 13.4808 2.80675L13.9333 4.16675H16.6667C16.8877 4.16675 17.0996 4.25455 17.2559 4.41083C17.4122 4.56711 17.5 4.77907 17.5 5.00008C17.5 5.2211 17.4122 5.43306 17.2559 5.58934C17.0996 5.74562 16.8877 5.83341 16.6667 5.83341L16.6642 5.89258L15.9417 16.0117C15.8966 16.6423 15.6143 17.2323 15.1517 17.663C14.6891 18.0938 14.0805 18.3333 13.4483 18.3334H6.55167C5.91955 18.3333 5.31092 18.0938 4.84831 17.663C4.38569 17.2323 4.10342 16.6423 4.05833 16.0117L3.33583 5.89175C3.33433 5.87234 3.33349 5.85288 3.33333 5.83341C3.11232 5.83341 2.90036 5.74562 2.74408 5.58934C2.5878 5.43306 2.5 5.2211 2.5 5.00008C2.5 4.77907 2.5878 4.56711 2.74408 4.41083C2.90036 4.25455 3.11232 4.16675 3.33333 4.16675H6.06667L6.51917 2.80675C6.62975 2.47474 6.84203 2.18596 7.12592 1.98134C7.4098 1.77673 7.75089 1.66666 8.10083 1.66675H11.9ZM7.5 8.33341C7.29589 8.33344 7.09889 8.40838 6.94636 8.54401C6.79383 8.67964 6.69638 8.86654 6.6725 9.06925L6.66667 9.16675V14.1667C6.6669 14.3791 6.74823 14.5834 6.89404 14.7379C7.03985 14.8923 7.23913 14.9853 7.45116 14.9977C7.6632 15.0102 7.87198 14.9412 8.03486 14.8049C8.19774 14.6685 8.30241 14.4752 8.3275 14.2642L8.33333 14.1667V9.16675C8.33333 8.94573 8.24554 8.73377 8.08926 8.57749C7.93297 8.42121 7.72101 8.33341 7.5 8.33341ZM12.5 8.33341C12.279 8.33341 12.067 8.42121 11.9107 8.57749C11.7545 8.73377 11.6667 8.94573 11.6667 9.16675V14.1667C11.6667 14.3878 11.7545 14.5997 11.9107 14.756C12.067 14.9123 12.279 15.0001 12.5 15.0001C12.721 15.0001 12.933 14.9123 13.0893 14.756C13.2455 14.5997 13.3333 14.3878 13.3333 14.1667V9.16675C13.3333 8.94573 13.2455 8.73377 13.0893 8.57749C12.933 8.42121 12.721 8.33341 12.5 8.33341ZM11.9 3.33341H8.1L7.8225 4.16675H12.1775L11.9 3.33341Z" fill="#57B9BA"/>
</g>
<defs>
<clipPath id="clip0_378_3359">
<rect width="20" height="20" fill="white"/>
</clipPath>
</defs>
</svg>
