<svg width="33" height="32" viewBox="0 0 33 32" fill="none" xmlns="http://www.w3.org/2000/svg">
<g clip-path="url(#clip0_437_1115)">
<path d="M25.8326 4C26.8529 3.99994 27.8346 4.38977 28.577 5.08971C29.3193 5.78966 29.7661 6.74681 29.826 7.76533L29.8326 8V24C29.8327 25.0203 29.4429 26.002 28.7429 26.7443C28.043 27.4867 27.0858 27.9335 26.0673 27.9933L25.8326 28H11.31C10.6752 27.9999 10.0495 27.8486 9.48474 27.5588C8.91995 27.269 8.43226 26.8489 8.06196 26.3333L7.91796 26.12L2.47796 17.4133C2.23406 17.0233 2.0952 16.5768 2.07487 16.1173C2.05454 15.6577 2.15344 15.2007 2.36196 14.7907L2.47663 14.5867L7.91796 5.88C8.2544 5.34159 8.71417 4.891 9.25925 4.56548C9.80433 4.23997 10.4191 4.04887 11.0526 4.008L11.31 4H25.8326ZM25.8326 6.66667H11.31C11.1128 6.66673 10.918 6.71054 10.7398 6.79492C10.5616 6.87931 10.4043 7.00217 10.2793 7.15467L10.1793 7.29333L4.73929 16L10.1793 24.7067C10.2838 24.874 10.4241 25.016 10.5901 25.1225C10.7561 25.229 10.9437 25.2974 11.1393 25.3227L11.31 25.3333H25.8326C26.1592 25.3333 26.4744 25.2134 26.7185 24.9964C26.9625 24.7794 27.1184 24.4803 27.1566 24.156L27.166 24V8C27.1659 7.67342 27.046 7.35822 26.829 7.11417C26.612 6.87012 26.313 6.71421 25.9886 6.676L25.8326 6.66667ZM15.0046 11.2853L17.8313 14.1147L20.6606 11.2853C20.7845 11.1615 20.9316 11.0634 21.0934 10.9964C21.2552 10.9294 21.4286 10.895 21.6038 10.8951C21.7789 10.8951 21.9523 10.9297 22.1141 10.9968C22.2759 11.0638 22.4228 11.1621 22.5466 11.286C22.6704 11.4099 22.7686 11.5569 22.8356 11.7188C22.9025 11.8806 22.937 12.054 22.9369 12.2291C22.9368 12.4043 22.9023 12.5777 22.8352 12.7395C22.7681 12.9012 22.6698 13.0482 22.546 13.172L19.7193 16L22.546 18.828C22.7961 19.078 22.9368 19.4172 22.9369 19.7709C22.937 20.1246 22.7966 20.4638 22.5466 20.714C22.2966 20.9642 21.9575 21.1048 21.6038 21.1049C21.2501 21.1051 20.9108 20.9647 20.6606 20.7147L17.8326 17.8853L15.0046 20.7147C14.7544 20.9649 14.4151 21.1054 14.0613 21.1054C13.7075 21.1054 13.3681 20.9649 13.118 20.7147C12.8678 20.4645 12.7272 20.1252 12.7272 19.7713C12.7272 19.4175 12.8678 19.0782 13.118 18.828L15.9473 16L13.118 13.172C12.8678 12.9218 12.7272 12.5825 12.7272 12.2287C12.7272 11.8748 12.8678 11.5355 13.118 11.2853C13.3681 11.0351 13.7075 10.8946 14.0613 10.8946C14.4151 10.8946 14.7544 11.0351 15.0046 11.2853Z" fill="white"/>
</g>
<defs>
<clipPath id="clip0_437_1115">
<rect width="32" height="32" fill="white" transform="translate(0.5)"/>
</clipPath>
</defs>
</svg>
