<svg width="21" height="18" viewBox="0 0 21 18" fill="none" xmlns="http://www.w3.org/2000/svg">
<path d="M18.375 0C18.9054 0 19.4141 0.210714 19.7892 0.585786C20.1643 0.960859 20.375 1.46957 20.375 2V16C20.375 16.5304 20.1643 17.0391 19.7892 17.4142C19.4141 17.7893 18.9054 18 18.375 18H2.375C1.84457 18 1.33586 17.7893 0.960786 17.4142C0.585714 17.0391 0.375 16.5304 0.375 16V2C0.375 1.46957 0.585714 0.960859 0.960786 0.585786C1.33586 0.210714 1.84457 0 2.375 0H18.375ZM18.375 2H2.375V12.1L7.37 7.106C7.48608 6.98989 7.62389 6.89779 7.77557 6.83495C7.92725 6.77211 8.08982 6.73977 8.254 6.73977C8.41818 6.73977 8.58075 6.77211 8.73243 6.83495C8.88411 6.89779 9.02192 6.98989 9.138 7.106L13.203 11.172L14.441 9.934C14.5571 9.81789 14.6949 9.72579 14.8466 9.66295C14.9982 9.60011 15.1608 9.56777 15.325 9.56777C15.4892 9.56777 15.6518 9.60011 15.8034 9.66295C15.9551 9.72579 16.0929 9.81789 16.209 9.934L18.375 12.101V2ZM13.875 4C14.2728 4 14.6544 4.15804 14.9357 4.43934C15.217 4.72064 15.375 5.10218 15.375 5.5C15.375 5.89782 15.217 6.27936 14.9357 6.56066C14.6544 6.84196 14.2728 7 13.875 7C13.4772 7 13.0956 6.84196 12.8143 6.56066C12.533 6.27936 12.375 5.89782 12.375 5.5C12.375 5.10218 12.533 4.72064 12.8143 4.43934C13.0956 4.15804 13.4772 4 13.875 4Z" fill="#FF70A6"/>
</svg>
