<svg width="21" height="18" viewBox="0 0 21 18" fill="none" xmlns="http://www.w3.org/2000/svg">
<path d="M18.375 1.00268e-07C18.8796 -0.000159579 19.3656 0.190406 19.7355 0.533497C20.1055 0.876588 20.3322 1.34684 20.37 1.85L20.375 2V16C20.3752 16.5046 20.1846 16.9906 19.8415 17.3605C19.4984 17.7305 19.0282 17.9572 18.525 17.995L18.375 18H2.375C1.87042 18.0002 1.38443 17.8096 1.01445 17.4665C0.644471 17.1234 0.417843 16.6532 0.38 16.15L0.375 16V2C0.37484 1.49542 0.565406 1.00943 0.908497 0.639452C1.25159 0.269471 1.72184 0.0428434 2.225 0.00500021L2.375 1.00268e-07H18.375ZM8.254 9.05L2.597 14.707C2.53118 14.7731 2.45646 14.8296 2.375 14.875V16H18.375V14.875C18.2935 14.8296 18.2188 14.7731 18.153 14.707L15.325 11.88L14.618 12.587L14.825 12.794C14.9178 12.8869 14.9915 12.9972 15.0417 13.1186C15.0919 13.2399 15.1177 13.37 15.1177 13.5014C15.1177 13.6327 15.0917 13.7628 15.0414 13.8841C14.9911 14.0054 14.9174 14.1157 14.8245 14.2085C14.7316 14.3013 14.6213 14.375 14.4999 14.4252C14.3786 14.4754 14.2485 14.5012 14.1171 14.5012C13.9858 14.5012 13.8557 14.4752 13.7344 14.4249C13.6131 14.3746 13.5028 14.3009 13.41 14.208L8.255 9.05H8.254ZM18.375 2H2.375V12.1L7.37 7.106C7.58774 6.88832 7.87816 6.75865 8.1856 6.74186C8.49303 6.72506 8.79585 6.82233 9.036 7.015L9.137 7.105L13.203 11.172L14.441 9.934C14.6587 9.71632 14.9492 9.58665 15.2566 9.56986C15.564 9.55306 15.8668 9.65033 16.107 9.843L16.209 9.934L18.375 12.101V2ZM13.875 4C14.2728 4 14.6544 4.15804 14.9357 4.43934C15.217 4.72064 15.375 5.10218 15.375 5.5C15.375 5.89782 15.217 6.27936 14.9357 6.56066C14.6544 6.84196 14.2728 7 13.875 7C13.4772 7 13.0956 6.84196 12.8143 6.56066C12.533 6.27936 12.375 5.89782 12.375 5.5C12.375 5.10218 12.533 4.72064 12.8143 4.43934C13.0956 4.15804 13.4772 4 13.875 4Z" fill="#A1A1A1"/>
</svg>
