<svg width="20" height="20" viewBox="0 0 20 20" fill="none" xmlns="http://www.w3.org/2000/svg">
<g clip-path="url(#clip0_378_3357)">
<path d="M10.0003 1.66675C14.6028 1.66675 18.3337 5.39758 18.3337 10.0001C18.3337 14.6026 14.6028 18.3334 10.0003 18.3334C5.39783 18.3334 1.66699 14.6026 1.66699 10.0001C1.66699 5.39758 5.39783 1.66675 10.0003 1.66675ZM11.667 11.1667L10.3637 12.2092C10.3179 12.2459 10.2804 12.2917 10.2536 12.3438C10.2268 12.3959 10.2112 12.4531 10.208 12.5116C10.2048 12.5701 10.2139 12.6287 10.2349 12.6834C10.2558 12.7381 10.288 12.7878 10.3295 12.8292L11.362 13.8617C11.5619 14.0619 11.7076 14.3097 11.7853 14.5817L11.9312 15.0926C11.9916 15.3069 12.0991 15.5051 12.2456 15.6727C12.3922 15.8404 12.5743 15.9732 12.7787 16.0617C13.5758 15.6955 14.293 15.1759 14.8895 14.5326L14.6945 12.9684C14.6604 12.6963 14.5596 12.4368 14.4012 12.2129C14.2427 11.989 14.0315 11.8077 13.7862 11.6851L12.5612 11.0717C12.4186 11.0004 12.2586 10.9715 12.1002 10.9883C11.9417 11.0051 11.7913 11.0671 11.667 11.1667ZM10.0003 3.33341C8.98037 3.33255 7.97385 3.5661 7.0585 4.01605C6.14315 4.46599 5.34345 5.12029 4.72116 5.92841L4.58366 6.11258V7.51675C4.58355 8.0255 4.73867 8.52217 5.02828 8.94044C5.3179 9.35872 5.72824 9.67867 6.20449 9.85758L6.35283 9.90758L7.42783 10.2367C8.57199 10.5867 9.68616 9.65591 9.57533 8.49008L9.55949 8.36925L9.41366 7.49508C9.38143 7.30144 9.4186 7.10264 9.51861 6.93372C9.61862 6.7648 9.77505 6.63661 9.96033 6.57175L10.0503 6.54675L10.5603 6.43008C10.8497 6.36394 11.1229 6.24051 11.3638 6.06707C11.6046 5.89363 11.8083 5.67369 11.9628 5.42024C12.1173 5.16679 12.2195 4.88496 12.2633 4.59138C12.3071 4.2978 12.2916 3.99842 12.2178 3.71091C11.5054 3.46018 10.7556 3.33253 10.0003 3.33341Z" fill="#57B9BA"/>
</g>
<defs>
<clipPath id="clip0_378_3357">
<rect width="20" height="20" fill="white"/>
</clipPath>
</defs>
</svg>
