<svg width="18" height="20" viewBox="0 0 18 20" fill="none" xmlns="http://www.w3.org/2000/svg">
<path fill-rule="evenodd" clip-rule="evenodd" d="M3.875 0C3.34457 0 2.83586 0.210714 2.46079 0.585786C2.08571 0.960859 1.875 1.46957 1.875 2V3C1.60978 3 1.35543 3.10536 1.16789 3.29289C0.980357 3.48043 0.875 3.73478 0.875 4C0.875 4.26522 0.980357 4.51957 1.16789 4.70711C1.35543 4.89464 1.60978 5 1.875 5V7C1.60978 7 1.35543 7.10536 1.16789 7.29289C0.980357 7.48043 0.875 7.73478 0.875 8C0.875 8.26522 0.980357 8.51957 1.16789 8.70711C1.35543 8.89464 1.60978 9 1.875 9V11C1.60978 11 1.35543 11.1054 1.16789 11.2929C0.980357 11.4804 0.875 11.7348 0.875 12C0.875 12.2652 0.980357 12.5196 1.16789 12.7071C1.35543 12.8946 1.60978 13 1.875 13V15C1.60978 15 1.35543 15.1054 1.16789 15.2929C0.980357 15.4804 0.875 15.7348 0.875 16C0.875 16.2652 0.980357 16.5196 1.16789 16.7071C1.35543 16.8946 1.60978 17 1.875 17V18C1.875 18.5304 2.08571 19.0391 2.46079 19.4142C2.83586 19.7893 3.34457 20 3.875 20H15.875C16.4054 20 16.9141 19.7893 17.2892 19.4142C17.6643 19.0391 17.875 18.5304 17.875 18V2C17.875 1.46957 17.6643 0.960859 17.2892 0.585786C16.9141 0.210714 16.4054 0 15.875 0H3.875ZM6.375 4C5.97718 4 5.59564 4.15804 5.31434 4.43934C5.03304 4.72064 4.875 5.10218 4.875 5.5V6.5C4.875 6.89782 5.03304 7.27936 5.31434 7.56066C5.59564 7.84196 5.97718 8 6.375 8H13.375C13.7728 8 14.1544 7.84196 14.4357 7.56066C14.717 7.27936 14.875 6.89782 14.875 6.5V5.5C14.875 5.10218 14.717 4.72064 14.4357 4.43934C14.1544 4.15804 13.7728 4 13.375 4H6.375Z" fill="#FF70A6"/>
</svg>
