<svg width="18" height="20" viewBox="0 0 18 20" fill="none" xmlns="http://www.w3.org/2000/svg">
<path fill-rule="evenodd" clip-rule="evenodd" d="M15.8749 1.00268e-07C16.3794 -0.000159579 16.8654 0.190406 17.2354 0.533497C17.6054 0.876588 17.832 1.34684 17.8699 1.85L17.8749 2V18C17.875 18.5046 17.6845 18.9906 17.3414 19.3605C16.9983 19.7305 16.528 19.9572 16.0249 19.995L15.8749 20H3.87487C3.37029 20.0002 2.8843 19.8096 2.51432 19.4665C2.14434 19.1234 1.91771 18.6532 1.87987 18.15L1.87487 18V17C1.61999 16.9997 1.37484 16.9021 1.1895 16.7272C1.00416 16.5522 0.892634 16.313 0.877697 16.0586C0.862759 15.8042 0.945543 15.5536 1.10913 15.3582C1.27272 15.1627 1.50477 15.0371 1.75787 15.007L1.87487 15V13C1.61999 12.9997 1.37484 12.9021 1.1895 12.7272C1.00416 12.5522 0.892634 12.313 0.877697 12.0586C0.862759 11.8042 0.945543 11.5536 1.10913 11.3582C1.27272 11.1627 1.50477 11.0371 1.75787 11.007L1.87487 11V9C1.61999 8.99972 1.37484 8.90212 1.1895 8.72715C1.00416 8.55218 0.892634 8.31305 0.877697 8.05861C0.862759 7.80416 0.945543 7.55362 1.10913 7.35817C1.27272 7.16271 1.50477 7.0371 1.75787 7.007L1.87487 7V5C1.61999 4.99972 1.37484 4.90212 1.1895 4.72715C1.00416 4.55218 0.892634 4.31305 0.877697 4.05861C0.862759 3.80416 0.945543 3.55362 1.10913 3.35817C1.27272 3.16271 1.50477 3.0371 1.75787 3.007L1.87487 3V2C1.87471 1.49542 2.06528 1.00943 2.40837 0.639452C2.75146 0.269471 3.22171 0.0428434 3.72487 0.00500021L3.87487 1.00268e-07H15.8749ZM15.8749 2H3.87487V18H15.8749V2ZM13.3749 4C13.7478 4.00002 14.1073 4.13892 14.3833 4.38962C14.6593 4.64032 14.8321 4.98484 14.8679 5.356L14.8749 5.5V7.5C14.8749 7.87288 14.7359 8.23239 14.4853 8.50842C14.2346 8.78445 13.89 8.9572 13.5189 8.993L13.3749 9H6.37487C6.00199 8.99998 5.64248 8.86108 5.36645 8.61038C5.09042 8.35968 4.91767 8.01516 4.88187 7.644L4.87487 7.5V5.5C4.87489 5.12712 5.01379 4.76761 5.26449 4.49158C5.51519 4.21555 5.85971 4.0428 6.23087 4.007L6.37487 4H13.3749ZM12.8749 6H6.87487V7H12.8749V6Z" fill="#A1A1A1"/>
</svg>
