<svg width="20" height="20" viewBox="0 0 20 20" fill="none" xmlns="http://www.w3.org/2000/svg">
<path fill-rule="evenodd" clip-rule="evenodd" d="M5 6.66675C5 5.34067 5.52678 4.0689 6.46447 3.13121C7.40215 2.19353 8.67392 1.66675 10 1.66675C11.3261 1.66675 12.5979 2.19353 13.5355 3.13121C14.4732 4.0689 15 5.34067 15 6.66675H15.8333C16.2754 6.66675 16.6993 6.84234 17.0118 7.1549C17.3244 7.46746 17.5 7.89139 17.5 8.33341V16.6667C17.5 17.1088 17.3244 17.5327 17.0118 17.8453C16.6993 18.1578 16.2754 18.3334 15.8333 18.3334H4.16667C3.72464 18.3334 3.30072 18.1578 2.98816 17.8453C2.67559 17.5327 2.5 17.1088 2.5 16.6667V8.33341C2.5 7.89139 2.67559 7.46746 2.98816 7.1549C3.30072 6.84234 3.72464 6.66675 4.16667 6.66675H5ZM10 3.33341C10.8841 3.33341 11.7319 3.6846 12.357 4.30973C12.9821 4.93485 13.3333 5.78269 13.3333 6.66675H6.66667C6.66667 5.78269 7.01786 4.93485 7.64298 4.30973C8.2681 3.6846 9.11594 3.33341 10 3.33341ZM11.6667 11.6667C11.6667 11.9593 11.5896 12.2467 11.4434 12.5001C11.2971 12.7534 11.0867 12.9638 10.8333 13.1101V14.1667C10.8333 14.3878 10.7455 14.5997 10.5893 14.756C10.433 14.9123 10.221 15.0001 10 15.0001C9.77899 15.0001 9.56702 14.9123 9.41074 14.756C9.25446 14.5997 9.16667 14.3878 9.16667 14.1667V13.1101C8.84895 12.9266 8.60065 12.6435 8.46026 12.3045C8.31987 11.9656 8.29524 11.5898 8.3902 11.2354C8.48515 10.881 8.69439 10.5679 8.98544 10.3445C9.2765 10.1212 9.63312 10.0001 10 10.0001C10.442 10.0001 10.866 10.1757 11.1785 10.4882C11.4911 10.8008 11.6667 11.2247 11.6667 11.6667Z" fill="#57B9BA"/>
</svg>
