<svg width="25" height="24" viewBox="0 0 25 24" fill="none" xmlns="http://www.w3.org/2000/svg">
<path fill-rule="evenodd" clip-rule="evenodd" d="M21.5001 12C21.7653 12 22.0196 12.1054 22.2072 12.2929C22.3947 12.4804 22.5001 12.7348 22.5001 13V19C22.5 19.2285 22.4216 19.4502 22.278 19.6279C22.1344 19.8057 21.9342 19.929 21.7108 19.9771C21.4874 20.0253 21.2542 19.9955 21.0501 19.8927C20.846 19.7898 20.6833 19.6202 20.5891 19.412C19.9828 19.783 19.2886 19.9857 18.5779 19.9993C17.8672 20.0129 17.1658 19.8368 16.5457 19.4893C15.9257 19.1418 15.4095 18.6353 15.0501 18.022C14.6908 17.4087 14.5014 16.7108 14.5014 16C14.5014 15.2892 14.6908 14.5913 15.0501 13.978C15.4095 13.3647 15.9257 12.8582 16.5457 12.5107C17.1658 12.1632 17.8672 11.9871 18.5779 12.0007C19.2886 12.0143 19.9828 12.217 20.5891 12.588C20.6683 12.4128 20.7964 12.2641 20.958 12.1598C21.1195 12.0555 21.3078 12 21.5001 12ZM8.50007 4C9.23207 4 9.88107 4.473 10.1051 5.17L14.4521 18.694C14.5309 18.9458 14.5069 19.2186 14.3855 19.4529C14.264 19.6871 14.0549 19.8639 13.8037 19.9447C13.5525 20.0254 13.2795 20.0036 13.0443 19.884C12.8091 19.7643 12.6308 19.5566 12.5481 19.306L11.1641 15H5.83607L4.45207 19.306C4.36938 19.5566 4.191 19.7643 3.9558 19.884C3.7206 20.0036 3.44765 20.0254 3.19643 19.9447C2.94522 19.8639 2.7361 19.6871 2.61465 19.4529C2.4932 19.2186 2.46927 18.9458 2.54807 18.694L6.89507 5.17C7.00431 4.8302 7.21857 4.53383 7.507 4.32357C7.79543 4.11332 8.14314 4.00002 8.50007 4ZM18.5001 14C17.9696 14 17.4609 14.2107 17.0859 14.5858C16.7108 14.9609 16.5001 15.4696 16.5001 16C16.5001 16.5304 16.7108 17.0391 17.0859 17.4142C17.4609 17.7893 17.9696 18 18.5001 18C19.0305 18 19.5392 17.7893 19.9143 17.4142C20.2894 17.0391 20.5001 16.5304 20.5001 16C20.5001 15.4696 20.2894 14.9609 19.9143 14.5858C19.5392 14.2107 19.0305 14 18.5001 14ZM8.50007 6.712L6.47907 13H10.5211L8.50007 6.712Z" fill="white"/>
</svg>
