<svg width="25" height="24" viewBox="0 0 25 24" fill="none" xmlns="http://www.w3.org/2000/svg">
<path d="M21.6293 4.01188C21.759 4.16013 21.8583 4.33249 21.9215 4.51912C21.9846 4.70575 22.0104 4.903 21.9973 5.09959C21.9842 5.29618 21.9325 5.48827 21.8452 5.66488C21.7578 5.84148 21.6366 5.99915 21.4883 6.12888L5.48826 20.1289C5.18884 20.3909 4.79758 20.5233 4.40056 20.4968C4.00355 20.4704 3.6333 20.2873 3.37126 19.9879C3.10923 19.6885 2.97688 19.2972 3.00332 18.9002C3.02976 18.5032 3.21284 18.1329 3.51226 17.8709L19.5123 3.87088C19.6605 3.7411 19.8329 3.6418 20.0195 3.57865C20.2061 3.5155 20.4034 3.48973 20.6 3.50283C20.7966 3.51592 20.9887 3.56762 21.1653 3.65496C21.3419 3.74231 21.4995 3.86359 21.6293 4.01188ZM21.6293 10.3869C21.759 10.5351 21.8583 10.7075 21.9215 10.8941C21.9846 11.0808 22.0104 11.278 21.9973 11.4746C21.9842 11.6712 21.9325 11.8633 21.8452 12.0399C21.7578 12.2165 21.6366 12.3742 21.4883 12.5039L12.7733 20.1289C12.4732 20.3863 12.0837 20.5149 11.6893 20.4867C11.295 20.4584 10.9277 20.2756 10.6674 19.9781C10.4071 19.6805 10.2749 19.2921 10.2994 18.8975C10.3239 18.503 10.5032 18.134 10.7983 17.8709L19.5123 10.2459C19.6605 10.1161 19.8329 10.0168 20.0195 9.95365C20.2061 9.8905 20.4034 9.86473 20.6 9.87783C20.7966 9.89092 20.9887 9.94262 21.1653 10.03C21.3419 10.1173 21.4995 10.2386 21.6293 10.3869ZM21.6293 16.2619C21.8739 16.5412 22.0063 16.9014 22.0008 17.2726C21.9952 17.6439 21.8522 18 21.5993 18.2719L21.4883 18.3789L19.4883 20.1289C19.199 20.383 18.8231 20.5162 18.4383 20.5008C18.0536 20.4854 17.6895 20.3227 17.4215 20.0462C17.1534 19.7698 17.0019 19.4009 16.9983 19.0159C16.9948 18.6309 17.1394 18.2592 17.4023 17.9779L17.5123 17.8709L19.5123 16.1209C19.6605 15.9911 19.8329 15.8918 20.0195 15.8286C20.2061 15.7655 20.4034 15.7397 20.6 15.7528C20.7966 15.7659 20.9887 15.8176 21.1653 15.905C21.3419 15.9923 21.4995 16.1136 21.6293 16.2619ZM14.3433 4.01188C14.4731 4.16007 14.5725 4.33238 14.6357 4.51897C14.6989 4.70557 14.7248 4.90279 14.7118 5.09938C14.6988 5.29597 14.6472 5.48807 14.5599 5.66472C14.4727 5.84136 14.3515 5.99909 14.2033 6.12888L5.48826 13.7539C5.18884 14.0159 4.79758 14.1483 4.40056 14.1218C4.00355 14.0954 3.6333 13.9123 3.37126 13.6129C3.10923 13.3134 2.97688 12.9222 3.00332 12.5252C3.02976 12.1282 3.21284 11.7579 3.51226 11.4959L12.2273 3.87088C12.5266 3.60909 12.9177 3.47689 13.3145 3.50333C13.7112 3.52977 14.0813 3.71269 14.3433 4.01188ZM8.05726 4.01188C8.30195 4.2912 8.43432 4.65136 8.42878 5.02265C8.42324 5.39394 8.28017 5.74998 8.02726 6.02188L7.91726 6.12888L5.48726 8.25388C5.19767 8.50587 4.82249 8.63724 4.43896 8.62094C4.05544 8.60465 3.69275 8.44194 3.42557 8.1663C3.15839 7.89067 3.00706 7.52309 3.00272 7.13924C2.99839 6.75539 3.14138 6.38448 3.40226 6.10288L3.51226 5.99588L5.94126 3.87088C6.24061 3.60909 6.63166 3.47689 7.02845 3.50333C7.42525 3.52977 7.7953 3.71269 8.05726 4.01188Z" fill="white"/>
</svg>
