<svg width="25" height="24" viewBox="0 0 25 24" fill="none" xmlns="http://www.w3.org/2000/svg">
<path d="M20.4995 3C21.0041 2.99984 21.4901 3.19041 21.8601 3.5335C22.23 3.87659 22.4567 4.34684 22.4945 4.85L22.4995 5V19C22.4997 19.5046 22.3091 19.9906 21.966 20.3605C21.6229 20.7305 21.1527 20.9572 20.6495 20.995L20.4995 21H4.49951C3.99494 21.0002 3.50895 20.8096 3.13896 20.4665C2.76898 20.1234 2.54236 19.6532 2.50451 19.15L2.49951 19V5C2.49935 4.49542 2.68992 4.00943 3.03301 3.63945C3.3761 3.26947 3.84636 3.04284 4.34951 3.005L4.49951 3H20.4995ZM10.3785 12.05L4.72151 17.707C4.65569 17.7731 4.58097 17.8296 4.49951 17.875V19H20.4995V17.875C20.418 17.8296 20.3433 17.7731 20.2775 17.707L17.4495 14.88L16.7425 15.587L16.9495 15.794C17.0424 15.8869 17.116 15.9972 17.1662 16.1186C17.2164 16.2399 17.2423 16.37 17.2422 16.5014C17.2422 16.6327 17.2162 16.7628 17.1659 16.8841C17.1156 17.0054 17.0419 17.1157 16.949 17.2085C16.8561 17.3013 16.7458 17.375 16.6244 17.4252C16.5031 17.4754 16.373 17.5012 16.2417 17.5012C16.1103 17.5012 15.9803 17.4752 15.8589 17.4249C15.7376 17.3746 15.6274 17.3009 15.5345 17.208L10.3795 12.05H10.3785ZM20.4995 5H4.49951V15.1L9.49451 10.106C9.71225 9.88832 10.0027 9.75865 10.3101 9.74186C10.6175 9.72506 10.9204 9.82233 11.1605 10.015L11.2615 10.105L15.3275 14.172L16.5655 12.934C16.7832 12.7163 17.0737 12.5866 17.3811 12.5699C17.6885 12.5531 17.9914 12.6503 18.2315 12.843L18.3335 12.934L20.4995 15.101V5ZM15.9995 7C16.3973 7 16.7789 7.15804 17.0602 7.43934C17.3415 7.72064 17.4995 8.10218 17.4995 8.5C17.4995 8.89782 17.3415 9.27936 17.0602 9.56066C16.7789 9.84196 16.3973 10 15.9995 10C15.6017 10 15.2202 9.84196 14.9388 9.56066C14.6575 9.27936 14.4995 8.89782 14.4995 8.5C14.4995 8.10218 14.6575 7.72064 14.9388 7.43934C15.2202 7.15804 15.6017 7 15.9995 7Z" fill="white"/>
</svg>
