<svg width="21" height="20" viewBox="0 0 21 20" fill="none" xmlns="http://www.w3.org/2000/svg">
<path fill-rule="evenodd" clip-rule="evenodd" d="M8.09014 0.809007C7.89095 0.663338 7.65911 0.568673 7.41489 0.533286C7.17066 0.497899 6.92149 0.522867 6.68914 0.606007C5.60275 1.00399 4.59375 1.58766 3.70714 2.33101C3.5193 2.49049 3.37333 2.69353 3.282 2.9224C3.19066 3.15126 3.15672 3.39901 3.18314 3.64401C3.25814 4.39701 3.12514 5.12401 2.76314 5.75001C2.40214 6.37701 1.83814 6.85601 1.14814 7.16701C0.92249 7.26696 0.724754 7.42066 0.572222 7.61469C0.41969 7.80871 0.317005 8.03714 0.273143 8.28001C0.0756189 9.41817 0.0756189 10.5818 0.273143 11.72C0.366143 12.257 0.733143 12.646 1.14814 12.834C1.83814 13.144 2.40214 13.624 2.76414 14.25C3.12514 14.877 3.25814 15.603 3.18314 16.356C3.13814 16.808 3.29014 17.32 3.70714 17.669C4.59374 18.4124 5.60274 18.996 6.68914 19.394C6.92134 19.4771 7.17034 19.502 7.41439 19.4666C7.65843 19.4312 7.8901 19.3366 8.08914 19.191C8.70414 18.749 9.40114 18.5 10.1251 18.5C10.8491 18.5 11.5451 18.749 12.1601 19.191C12.5301 19.457 13.0501 19.581 13.5611 19.394C14.6475 18.996 15.6565 18.4123 16.5431 17.669C16.9601 17.32 17.1131 16.809 17.0671 16.356C16.9921 15.603 17.1241 14.876 17.4871 14.25C17.8481 13.623 18.4121 13.145 19.1021 12.834C19.5161 12.646 19.8841 12.257 19.9771 11.72C20.1746 10.5818 20.1746 9.41817 19.9771 8.28001C19.9333 8.03714 19.8306 7.80871 19.6781 7.61469C19.5255 7.42066 19.3278 7.26696 19.1021 7.16701C18.4121 6.85601 17.8481 6.37701 17.4861 5.75001C17.1241 5.12401 16.9921 4.39701 17.0671 3.64401C17.0935 3.39901 17.0595 3.1513 16.9682 2.92245C16.8768 2.69359 16.7309 2.49055 16.5431 2.33101C15.6565 1.58766 14.6475 1.00399 13.5611 0.606007C13.3289 0.52304 13.08 0.498164 12.8359 0.533548C12.5919 0.568933 12.3602 0.663504 12.1611 0.809007C11.5451 1.25001 10.8481 1.50001 10.1251 1.50001C9.40214 1.50001 8.70514 1.25101 8.09014 0.809007ZM7.12514 10C7.12514 9.20436 7.44121 8.4413 8.00382 7.87869C8.56643 7.31608 9.32949 7.00001 10.1251 7.00001C10.9208 7.00001 11.6839 7.31608 12.2465 7.87869C12.8091 8.4413 13.1251 9.20436 13.1251 10C13.1251 10.7957 12.8091 11.5587 12.2465 12.1213C11.6839 12.6839 10.9208 13 10.1251 13C9.32949 13 8.56643 12.6839 8.00382 12.1213C7.44121 11.5587 7.12514 10.7957 7.12514 10Z" fill="#FF70A6"/>
</svg>
