<svg width="21" height="20" viewBox="0 0 21 20" fill="none" xmlns="http://www.w3.org/2000/svg">
<path fill-rule="evenodd" clip-rule="evenodd" d="M12.1602 0.808988C12.5302 0.542988 13.0502 0.418988 13.5612 0.605988C14.6476 1.00397 15.6566 1.58765 16.5432 2.33099C16.9602 2.68099 17.1132 3.19199 17.0672 3.64399C16.9922 4.39699 17.1242 5.12399 17.4872 5.74999C17.8072 6.30699 18.2892 6.74699 18.8772 7.05699L19.1022 7.16699C19.5162 7.35399 19.8842 7.74299 19.9772 8.27999C20.1747 9.41815 20.1747 10.5818 19.9772 11.72C19.8942 12.204 19.5872 12.567 19.2242 12.771L19.1022 12.834C18.4122 13.144 17.8482 13.624 17.4862 14.25C17.1242 14.877 16.9922 15.603 17.0672 16.356C17.1122 16.808 16.9602 17.32 16.5432 17.669C15.6566 18.4123 14.6476 18.996 13.5612 19.394C13.329 19.477 13.08 19.502 12.8359 19.4666C12.5919 19.4312 12.3602 19.3366 12.1612 19.191C11.5452 18.75 10.8482 18.5 10.1252 18.5C9.40217 18.5 8.70517 18.749 8.09017 19.191C7.89102 19.3367 7.65917 19.4314 7.41494 19.4668C7.1707 19.5022 6.92151 19.4772 6.68917 19.394C5.60277 18.996 4.59377 18.4123 3.70717 17.669C3.51939 17.5094 3.37348 17.3064 3.28215 17.0775C3.19082 16.8487 3.15684 16.601 3.18317 16.356C3.25817 15.603 3.12517 14.876 2.76317 14.25C2.43347 13.6911 1.9513 13.2377 1.37317 12.943L1.14817 12.833C0.922519 12.733 0.724784 12.5793 0.572252 12.3853C0.41972 12.1913 0.317035 11.9629 0.273173 11.72C0.0756089 10.5818 0.0756089 9.41814 0.273173 8.27999C0.356173 7.79599 0.663173 7.43299 1.02617 7.22899L1.14817 7.16699C1.83817 6.85599 2.40217 6.37699 2.76417 5.74999C3.12517 5.12399 3.25817 4.39699 3.18317 3.64399C3.15684 3.39899 3.19082 3.15128 3.28215 2.92243C3.37348 2.69357 3.51939 2.49053 3.70717 2.33099C4.59378 1.58765 5.60278 1.00397 6.68917 0.605988C6.92138 0.523021 7.17036 0.498145 7.4144 0.533529C7.65843 0.568914 7.89009 0.663484 8.08917 0.808988C8.70417 1.25099 9.40117 1.49999 10.1252 1.49999C10.8492 1.49999 11.5452 1.25099 12.1602 0.808988ZM13.1172 2.57799C12.2512 3.14799 11.2302 3.49999 10.1252 3.49999C9.02017 3.49999 7.99917 3.14699 7.13317 2.57799C6.43701 2.85899 5.78392 3.2367 5.19317 3.69999C5.25317 4.73299 5.04817 5.79299 4.49617 6.74999C3.94317 7.70599 3.12817 8.41299 2.20317 8.87799C2.09896 9.62169 2.09896 10.3763 2.20317 11.12C3.12817 11.585 3.94317 12.292 4.49617 13.25C5.04817 14.205 5.25317 15.265 5.19317 16.298C5.78386 16.7616 6.43695 17.1397 7.13317 17.421C7.99917 16.851 9.02017 16.499 10.1252 16.499C11.2302 16.499 12.2512 16.852 13.1172 17.421C13.8133 17.1399 14.4664 16.7622 15.0572 16.299C14.9972 15.265 15.2022 14.205 15.7542 13.249C16.3062 12.292 17.1222 11.585 18.0472 11.119C18.1514 10.376 18.1514 9.62202 18.0472 8.87899C17.1222 8.41299 16.3072 7.70599 15.7542 6.74899C15.2022 5.79299 14.9972 4.73299 15.0572 3.69899C14.4664 3.2357 13.8133 2.85899 13.1172 2.57799ZM10.1252 5.99999C11.186 5.99999 12.2035 6.42141 12.9536 7.17156C13.7037 7.92171 14.1252 8.93912 14.1252 9.99999C14.1252 11.0609 13.7037 12.0783 12.9536 12.8284C12.2035 13.5786 11.186 14 10.1252 14C9.06431 14 8.04689 13.5786 7.29675 12.8284C6.5466 12.0783 6.12517 11.0609 6.12517 9.99999C6.12517 8.93912 6.5466 7.92171 7.29675 7.17156C8.04689 6.42141 9.06431 5.99999 10.1252 5.99999ZM10.1252 7.99999C9.59474 7.99999 9.08603 8.2107 8.71096 8.58577C8.33589 8.96085 8.12517 9.46955 8.12517 9.99999C8.12517 10.5304 8.33589 11.0391 8.71096 11.4142C9.08603 11.7893 9.59474 12 10.1252 12C10.6556 12 11.1643 11.7893 11.5394 11.4142C11.9145 11.0391 12.1252 10.5304 12.1252 9.99999C12.1252 9.46955 11.9145 8.96085 11.5394 8.58577C11.1643 8.2107 10.6556 7.99999 10.1252 7.99999Z" fill="#A1A1A1"/>
</svg>
